name Walk10.mot
datacolumns 19
datarows 12
range 1.36000000 1.41500000
endheader

                time	   L_ground_force_vx	   L_ground_force_vy	   L_ground_force_vz	   L_ground_force_px	   L_ground_force_py	   L_ground_force_pz	   R_ground_force_vx	   R_ground_force_vy	   R_ground_force_vz	   R_ground_force_px	   R_ground_force_py	   R_ground_force_pz	   L_ground_torque_x	   L_ground_torque_y	   L_ground_torque_z	   R_ground_torque_x	   R_ground_torque_y	   R_ground_torque_z	
          1.36000000	          0.25238343	         -6.53347519	          0.31702474	         -0.00013189	          0.00000000	         -0.00000739	         -0.00000000	         -0.00000000	         -0.00000000	          0.00000000	          0.00000000	          0.00000000	          0.00000000	         -0.00389302	          0.00000000	          0.00000000	          0.00000000	          0.00000000	
          1.36500000	         -2.94916562	         14.59513093	         -0.45318451	         -0.22043179	          0.00000000	         -0.03265454	          0.00000000	          0.00000000	         -0.00000000	          0.00000000	          0.00000000	          0.00000000	          0.00000000	          0.01596307	          0.00000000	          0.00000000	          0.00000000	          0.00000000	
          1.37000000	         -9.50601807	         96.88558301	         -3.99190660	         -0.41821565	          0.00000000	         -0.06377864	          0.00000000	          0.00000000	          0.00000000	          0.00000000	          0.00000000	          0.00000000	          0.00000000	          0.08181104	          0.00000000	          0.00000000	          0.00000000	          0.00000000	
          1.37500000	        -13.42081820	        211.42801426	        -10.92985758	         -0.46842558	          0.00000000	         -0.07250962	          0.00000000	          0.00000000	          0.00000000	         -0.00000000	          0.00000000	         -0.00000000	          0.00000000	          0.13428684	          0.00000000	          0.00000000	         -0.00000000	          0.00000000	
          1.38000000	        -12.80611382	        257.55966534	        -18.38354873	         -0.45941743	          0.00000000	         -0.07139257	         -0.00000000	         -0.00000000	          0.00000000	         -0.00000000	          0.00000000	         -0.00000000	          0.00000000	          0.15124420	          0.00000000	          0.00000000	         -0.00000000	          0.00000000	
          1.38500000	        -13.21761120	        237.19758436	        -23.08318796	         -0.44936378	          0.00000000	         -0.07063148	         -0.00000000	         -0.00000000	         -0.00000000	         -0.00000000	          0.00000000	         -0.00000000	          0.00000000	          0.22425131	          0.00000000	          0.00000000	         -0.00000000	          0.00000000	
          1.39000000	        -17.73182244	        233.04388329	        -25.41074960	         -0.44363047	          0.00000000	         -0.07245428	         -0.00000000	         -0.00000000	         -0.00000000	          0.00000000	          0.00000000	          0.00000000	          0.00000000	          0.50645676	          0.00000000	          0.00000000	          0.00000000	          0.00000000	
          1.39500000	        -27.58141538	        268.86711676	        -23.27633211	         -0.43808222	          0.00000000	         -0.07587254	          0.00000000	          0.00000000	          0.00000000	          0.00000000	          0.00000000	          0.00000000	          0.00000000	          0.93714462	          0.00000000	          0.00000000	          0.00000000	          0.00000000	
          1.40000000	        -41.48107464	        313.07592837	        -13.61932420	         -0.43384621	          0.00000000	         -0.07858136	          0.00000000	          0.00000000	          0.00000000	          0.00000000	          0.00000000	          0.00000000	          0.00000000	          1.25573708	          0.00000000	          0.00000000	          0.00000000	          0.00000000	
          1.40500000	        -56.02530308	        343.28789887	         -2.76719016	         -0.43078413	          0.00000000	         -0.08024729	         -0.00000000	         -0.00000000	          0.00000000	         -0.00000000	          0.00000000	         -0.00000000	          0.00000000	          1.30525232	          0.00000000	          0.00000000	         -0.00000000	          0.00000000	
          1.41000000	        -66.79095784	        363.71178156	          3.51438877	         -0.42776400	          0.00000000	         -0.08116188	         -0.00000000	         -0.00000000	         -0.00000000	         -0.00000000	          0.00000000	         -0.00000000	          0.00000000	          1.09314821	          0.00000000	          0.00000000	         -0.00000000	          0.00000000	
          1.41500000	        -70.60307909	        382.77482073	          8.20079867	         -0.42490768	          0.00000000	         -0.08185496	         -0.00000000	         -0.00000000	         -0.00000000	          0.00000000	          0.00000000	          0.00000000	          0.00000000	          0.65761860	          0.00000000	          0.00000000	          0.00000000	          0.00000000	
